<svg aria-hidden="true" style="position: absolute; width: 0; height: 0; overflow: hidden;" version="1.1" xmlns="http://www.w3.org/2000/svg" xmlns:xlink="http://www.w3.org/1999/xlink">
<defs>
<symbol id="icon-logo" viewBox="0 0 32 32">
<path d="M15.828 6.134c-0.684 0.137-0.916 0.279-1.665 1.051-0.809 0.832-1.070 0.98-1.879 1.075-0.559 0.059-0.785 0-0.422-0.118 0.25-0.083 0.416-0.256 0.386-0.398-0.012-0.060-0.113-0.161-0.225-0.226-0.185-0.113-0.303-0.125-1.1-0.125-0.832 0.006-0.91 0.012-1.147 0.149-0.357 0.202-0.333 0.386 0.077 0.606l0.297 0.166h-0.315c-0.677 0-1.028 0.327-1.313 1.2-0.202 0.623-0.25 1.116-0.28 3.047-0.053 3.154 0.030 3.635 0.707 3.973l0.339 0.172 2.259 0.030c1.575 0.018 2.259 0.012 2.259-0.035 0-0.042-0.707-0.071-2.211-0.090-2.372-0.024-2.538-0.041-2.836-0.327-0.357-0.333-0.38-0.499-0.41-2.667-0.036-2.929 0.107-4.093 0.606-4.776 0.279-0.38 0.44-0.415 2.081-0.439 2.104-0.036 2.223-0.084 3.424-1.372 0.63-0.677 1.248-0.897 2.377-0.832 1.034 0.053 1.54 0.225 1.849 0.641 0.499 0.659 0.583 0.737 0.963 0.926 0.22 0.101 0.428 0.191 0.47 0.191 0.041 0.006 0.142 0.041 0.22 0.083l0.149 0.083-0.196 0.095c-0.113 0.059-0.232 0.19-0.279 0.309-0.321 0.773 0.731 1.307 1.224 0.624 0.154-0.226 0.131-0.493-0.071-0.755l-0.131-0.16 0.22 0.036c0.796 0.124 1.087 0.897 1.201 3.16 0.035 0.695-0.059 4.265-0.125 4.651-0.024 0.149-0.077 0.214-0.25 0.303-0.476 0.238-0.802 0.273-2.538 0.273-2.836 0-3.977-0.243-5.101-1.099-0.689-0.522-1.159-1.235-1.379-2.079-0.191-0.724-0.066-1.806 0.279-2.554 0.148-0.314 0.588-0.885 0.915-1.182 0.6-0.552 1.278-0.826 2.134-0.879 0.618-0.036 1.088 0.042 1.605 0.261 0.904 0.386 1.742 1.319 2.122 2.364 0.149 0.404 0.172 0.57 0.178 1.069 0.006 0.719-0.154 1.235-0.571 1.859-0.249 0.38-0.903 1.057-1.344 1.39-0.113 0.089-0.184 0.178-0.166 0.202 0.095 0.095 1.064-0.79 1.504-1.366 0.612-0.814 0.85-2.020 0.588-2.935-0.22-0.76-0.749-1.598-1.313-2.085-0.375-0.321-1.082-0.683-1.569-0.802-2.016-0.493-4.108 0.938-4.518 3.1-0.041 0.214-0.059 0.606-0.041 0.921 0.083 1.449 0.892 2.596 2.36 3.327 0.583 0.297 1.403 0.469 2.711 0.576 0.945 0.077 2.699 0.077 3.281-0.006 0.541-0.071 1.046-0.279 1.147-0.475 0.048-0.089 0.107-0.82 0.161-2.067 0.149-3.315-0.066-5.222-0.642-5.75-0.178-0.16-0.386-0.243-0.885-0.344-0.44-0.089-1.088-0.321-1.445-0.517-0.137-0.077-0.363-0.285-0.505-0.464-0.553-0.689-0.72-0.814-1.29-0.939-0.482-0.107-1.504-0.13-1.932-0.053zM11.922 7.62c0.131 0.059 0.22 0.131 0.208 0.172-0.048 0.137-0.482 0.339-0.892 0.41-0.476 0.083-1.094 0-1.403-0.184-0.327-0.202-0.22-0.35 0.345-0.481 0.351-0.077 1.486-0.024 1.742 0.083zM21.005 8.428c0.321 0.314 0.291 0.647-0.066 0.855-0.208 0.125-0.315 0.125-0.565 0.012-0.452-0.22-0.422-0.808 0.053-1.015 0.274-0.119 0.327-0.107 0.577 0.149z"></path>
<path d="M23.122 24.747c0.003-0.066 0.028-0.119 0.072-0.12 0.078-0.003 0.156-0.032 0.234-0.019 0.084 0.014 0.164 0.002 0.245-0.020 0.016-0.004 0.030-0.010 0.044-0.002 0.038 0.025 0.077 0.012 0.116 0.007 0.058-0.006 0.114-0.032 0.172 0.004 0.009 0.006 0.023 0.002 0.034-0.002 0.155-0.044 0.312-0.009 0.468-0.013 0.038 0.026 0.077-0.006 0.114 0.001 0.043 0.009 0.085 0.009 0.128 0.005 0.073-0.006 0.149-0.023 0.221 0.012 0.013 0.005 0.030 0.003 0.046 0.003 0.067 0.002 0.133 0 0.2 0.006 0.036 0.003 0.069 0.006 0.101-0.019 0.017-0.014 0.038-0.006 0.057 0 0.071 0.023 0.162 0.041 0.215 0.028 0.044-0.010 0.085-0.007 0.128 0.002 0.030 0.006 0.062 0.009 0.094 0.010 0.359 0.010 0.717 0.022 1.075 0.045 0.185 0.012 0.37 0.020 0.555 0.030 0.071 0.004 0.142 0.016 0.213 0.017 0.26 0.007 0.52 0.007 0.78 0.026 0.080 0.006 0.155 0.028 0.234 0.033 0.133 0.012 0.267 0.029 0.4 0.043 0.019 0.003 0.038 0.007 0.045 0.033-0.166-0.010-0.331-0.025-0.494-0.031-0.137-0.006-0.275-0.003-0.412-0.003-0.098 0-0.197 0.002-0.295-0.002-0.166-0.004-0.331-0.017-0.497-0.017-0.095 0-0.189-0.006-0.283-0.012-0.098-0.005-0.197-0.001-0.294-0.007-0.302-0.017-0.604-0.033-0.907-0.020-0.053-0.023-0.11 0.010-0.164-0.005-0.075-0.022-0.147-0.020-0.222-0.003-0.022 0.006-0.048 0.002-0.071 0-0.067-0.004-0.133-0.010-0.2-0.013-0.178-0.009-0.354-0.009-0.53 0.017-0.012 0.002-0.026 0.006-0.035 0-0.066-0.036-0.137-0.002-0.206-0.014-0.047-0.009-0.103-0.007-0.152 0.002-0.088 0.016-0.176 0.011-0.265 0.022-0.056 0.007-0.108-0.013-0.163-0.012-0.083 0.003-0.167 0.003-0.249 0.007-0.122 0.006-0.245 0.005-0.364 0.028-0.048 0.010-0.094 0.006-0.142 0.004-0.045-0.003-0.051-0.011-0.049-0.053z"></path>
<path d="M8.575 24.747c-0.003-0.066-0.028-0.119-0.072-0.12-0.078-0.003-0.156-0.032-0.234-0.019-0.084 0.014-0.164 0.002-0.245-0.020-0.016-0.004-0.030-0.010-0.045-0.002-0.038 0.025-0.076 0.012-0.115 0.007-0.058-0.006-0.114-0.032-0.172 0.004-0.009 0.006-0.023 0.002-0.035-0.002-0.154-0.044-0.312-0.009-0.468-0.013-0.038 0.026-0.076-0.006-0.114 0.001-0.043 0.009-0.086 0.009-0.128 0.005-0.074-0.006-0.149-0.023-0.221 0.012-0.013 0.005-0.031 0.003-0.046 0.003-0.066 0.002-0.133 0-0.199 0.006-0.036 0.003-0.069 0.006-0.101-0.019-0.017-0.014-0.038-0.006-0.056 0-0.071 0.023-0.162 0.041-0.215 0.028-0.045-0.010-0.085-0.007-0.128 0.002-0.031 0.006-0.063 0.009-0.094 0.010-0.358 0.010-0.716 0.022-1.075 0.045-0.185 0.012-0.37 0.020-0.555 0.030-0.070 0.004-0.141 0.016-0.212 0.017-0.26 0.007-0.52 0.007-0.781 0.026-0.079 0.006-0.155 0.028-0.234 0.033-0.133 0.012-0.268 0.029-0.401 0.043-0.018 0.003-0.038 0.007-0.044 0.033 0.166-0.010 0.331-0.025 0.494-0.031 0.137-0.006 0.275-0.003 0.412-0.003 0.098 0 0.196 0.002 0.295-0.002 0.166-0.004 0.331-0.017 0.497-0.017 0.095 0 0.189-0.006 0.283-0.012 0.098-0.005 0.196-0.001 0.293-0.007 0.302-0.017 0.604-0.033 0.907-0.020 0.054-0.023 0.11 0.010 0.164-0.005 0.075-0.022 0.148-0.020 0.223-0.003 0.022 0.006 0.048 0.002 0.071 0 0.066-0.004 0.133-0.010 0.199-0.013 0.178-0.009 0.355-0.009 0.531 0.017 0.012 0.002 0.026 0.006 0.034 0 0.067-0.036 0.138-0.002 0.207-0.014 0.046-0.009 0.103-0.007 0.152 0.002 0.088 0.016 0.176 0.011 0.264 0.022 0.057 0.007 0.109-0.013 0.164-0.012 0.083 0.003 0.166 0.003 0.249 0.007 0.121 0.006 0.244 0.005 0.364 0.028 0.048 0.010 0.094 0.006 0.142 0.004 0.044-0.003 0.050-0.011 0.049-0.053z"></path>
<path d="M3.993 21.186c0.024-0.004 0.048-0.005 0.072-0.004 0.025 0 0.049 0.006 0.072 0.019 0.004 0.004 0.007 0.012 0.011 0.021 0.004 0.010 0.007 0.019 0.009 0.028 0 0.004-0.002 0.010-0.006 0.015-0.004 0.004-0.009 0.010-0.013 0.015-0.010 0.006-0.021 0.010-0.032 0.013-0.139 0.027-0.267 0.073-0.385 0.138s-0.23 0.14-0.337 0.224c-0.146 0.113-0.279 0.237-0.402 0.372-0.122 0.136-0.236 0.276-0.345 0.423-0.206 0.276-0.397 0.564-0.574 0.861-0.041 0.069-0.083 0.136-0.125 0.201-0.006 0.013-0.013 0.024-0.021 0.036-0.020 0.032-0.042 0.062-0.066 0.089-0.063 0.066-0.134 0.083-0.216 0.049-0.034-0.017-0.054-0.040-0.059-0.070s-0.005-0.058 0.002-0.089c0.046-0.421 0.074-0.84 0.083-1.259 0.017-0.561 0.028-1.123 0.032-1.685 0.005-0.563-0.003-1.124-0.025-1.685-0.016-0.337-0.035-0.675-0.057-1.014-0.012-0.153-0.022-0.309-0.032-0.466 0-0.013-0.002-0.024-0.004-0.034-0.003-0.032-0.004-0.065-0.004-0.097 0.005-0.049 0.033-0.077 0.083-0.083 0.031-0.004 0.058-0.001 0.080 0.011 0.024 0.010 0.038 0.025 0.042 0.047 0.020 0.079 0.034 0.159 0.042 0.239 0 0.024 0.001 0.048 0.002 0.072 0.032 0.438 0.060 0.876 0.083 1.314 0.024 0.435 0.035 0.87 0.034 1.306-0.002 0.435-0.007 0.87-0.017 1.306-0.007 0.357-0.017 0.714-0.030 1.073-0.002 0.082-0.006 0.164-0.013 0.248-0.004 0.047-0.007 0.093-0.009 0.14-0.002 0.041-0.004 0.083-0.009 0.125 0 0.020-0.001 0.039-0.002 0.059 0.007 0.001 0.013 0.003 0.017 0.004 0.005 0 0.012 0.001 0.019 0.004 0.010-0.017 0.020-0.033 0.032-0.049 0.028-0.044 0.057-0.088 0.087-0.133 0.197-0.315 0.415-0.614 0.654-0.898 0.121-0.142 0.25-0.275 0.387-0.398s0.287-0.231 0.451-0.324c0.077-0.042 0.155-0.078 0.235-0.108s0.165-0.049 0.254-0.057z"></path>
<path d="M5.559 21.299c-0.027 0.080-0.080 0.174-0.159 0.279s-0.178 0.171-0.296 0.201c-0.117 0.030-0.219 0.025-0.305-0.013s-0.133-0.14-0.142-0.307c-0.099 0.191-0.193 0.313-0.282 0.366-0.088 0.052-0.179 0.072-0.275 0.059-0.109-0.017-0.182-0.058-0.22-0.125s-0.051-0.145-0.038-0.233c0.013-0.087 0.040-0.171 0.080-0.252 0.031-0.059 0.075-0.114 0.131-0.165 0.058-0.052 0.117-0.092 0.178-0.121 0.077-0.039 0.154-0.058 0.231-0.055 0.077 0.002 0.161 0.027 0.25 0.076 0.001 0.002 0.002-0.001 0.002-0.006 0-0.009 0.002-0.019 0.006-0.032 0.004-0.014 0.012-0.024 0.023-0.032 0.028-0.021 0.062-0.032 0.102-0.032s0.072 0.020 0.093 0.059c0.003 0.051-0.003 0.116-0.017 0.197-0.033 0.174-0.033 0.299 0 0.375s0.089 0.112 0.169 0.108c0.080-0.005 0.185-0.085 0.313-0.239 0.13-0.155 0.181-0.192 0.154-0.11zM4.13 21.707c0.043 0.033 0.094 0.029 0.152-0.013s0.113-0.098 0.165-0.174c0.053-0.075 0.098-0.149 0.136-0.222s0.056-0.13 0.059-0.167c-0.107-0.058-0.2-0.067-0.277-0.028s-0.14 0.101-0.186 0.186c-0.045 0.086-0.072 0.17-0.080 0.252s0.002 0.137 0.032 0.165z"></path>
<path d="M6.955 21.313c0.021 0.003 0.017 0.033-0.013 0.089-0.029 0.057-0.075 0.122-0.14 0.195s-0.139 0.137-0.22 0.191c-0.080 0.052-0.16 0.076-0.239 0.072-0.061-0.005-0.105-0.023-0.133-0.053s-0.048-0.064-0.059-0.099c-0.010-0.037-0.017-0.068-0.021-0.095-0.002-0.020-0.004-0.034-0.006-0.044s-0.009-0.011-0.017-0.002c-0.063 0.143-0.169 0.214-0.322 0.214-0.086 0-0.156-0.037-0.21-0.112-0.052-0.076-0.086-0.17-0.099-0.284-0.014-0.114-0.004-0.23 0.032-0.347 0.010-0.038 0.034-0.064 0.072-0.078 0.026-0.011 0.054-0.011 0.083 0.002 0.030 0.013 0.045 0.032 0.049 0.057 0 0.025-0.002 0.051-0.006 0.076-0.006 0.020-0.010 0.038-0.011 0.055-0.004 0.069-0.004 0.146 0.002 0.229s0.030 0.154 0.068 0.214c0.037 0.048 0.077 0.055 0.121 0.019 0.045-0.035 0.085-0.090 0.119-0.165 0.026-0.059 0.047-0.117 0.061-0.176 0.015-0.059 0.025-0.105 0.030-0.138 0.003-0.013 0.004-0.021 0.004-0.025 0.007-0.025 0.014-0.050 0.021-0.074 0.011-0.035 0.022-0.070 0.032-0.104 0.018-0.066 0.065-0.094 0.14-0.083 0.045 0.003 0.070 0.025 0.074 0.066 0.004 0.055 0.005 0.11 0.002 0.165-0.002 0.059-0.004 0.116-0.009 0.171-0.004 0.080-0.008 0.16-0.011 0.239-0.002 0.114 0.022 0.181 0.070 0.201 0.048 0.018 0.106 0.006 0.176-0.038s0.136-0.102 0.199-0.176c0.005-0.007 0.013-0.016 0.021-0.028 0.013-0.015 0.028-0.033 0.046-0.053 0.018-0.021 0.036-0.039 0.053-0.053s0.031-0.024 0.042-0.028z"></path>
<path d="M7.794 21.349c0.018-0.038 0.031-0.056 0.038-0.053s0.009 0.018 0.004 0.047c-0.003 0.027-0.009 0.058-0.017 0.093-0.013 0.052-0.035 0.114-0.066 0.184s-0.065 0.134-0.102 0.191c-0.057 0.080-0.126 0.141-0.21 0.18-0.082 0.040-0.157 0.050-0.224 0.030s-0.107-0.083-0.116-0.191c-0.003-0.089 0.005-0.186 0.023-0.292 0.005-0.045 0.012-0.089 0.019-0.131 0-0.015-0.004-0.028-0.013-0.036-0.007-0.009-0.017-0.011-0.030-0.009-0.009 0-0.018 0-0.030 0-0.054 0.009-0.108 0.007-0.163-0.004-0.065-0.018-0.103-0.050-0.114-0.095-0.011-0.047-0.011-0.107 0.002-0.182 0.007-0.053 0.028-0.094 0.061-0.121 0.032-0.026 0.070-0.037 0.114-0.032 0.062 0.006 0.092 0.030 0.089 0.072-0.002 0.041-0.013 0.085-0.034 0.131-0.018 0.041-0.029 0.075-0.030 0.102-0.002 0.025 0.021 0.035 0.068 0.028 0.011-0.003 0.023-0.006 0.036-0.011 0.017-0.007 0.037-0.013 0.059-0.017s0.051-0.007 0.087-0.004c0.042 0.002 0.070 0.021 0.085 0.059 0.014 0.037 0.020 0.084 0.017 0.14-0.002 0.055-0.006 0.112-0.015 0.171-0.010 0.072-0.015 0.134-0.015 0.186 0 0.051 0.015 0.080 0.044 0.089 0.039 0.012 0.098-0.024 0.178-0.106 0.079-0.083 0.163-0.223 0.252-0.419z"></path>
<path d="M9.399 21.299c-0.027 0.080-0.080 0.174-0.159 0.279s-0.178 0.171-0.296 0.201c-0.117 0.030-0.219 0.025-0.305-0.013s-0.133-0.14-0.142-0.307c-0.099 0.191-0.193 0.313-0.282 0.366-0.088 0.052-0.179 0.072-0.275 0.059-0.109-0.017-0.182-0.058-0.22-0.125s-0.051-0.145-0.038-0.233c0.013-0.087 0.040-0.171 0.080-0.252 0.031-0.059 0.075-0.114 0.131-0.165 0.058-0.052 0.117-0.092 0.178-0.121 0.077-0.039 0.155-0.058 0.231-0.055 0.077 0.002 0.161 0.027 0.25 0.076 0.001 0.002 0.002-0.001 0.002-0.006 0-0.009 0.002-0.019 0.006-0.032 0.004-0.014 0.012-0.024 0.023-0.032 0.028-0.021 0.062-0.032 0.102-0.032s0.072 0.020 0.093 0.059c0.003 0.051-0.003 0.116-0.017 0.197-0.033 0.174-0.033 0.299 0 0.375s0.089 0.112 0.169 0.108c0.080-0.005 0.185-0.085 0.313-0.239 0.13-0.155 0.181-0.192 0.155-0.11zM7.971 21.707c0.043 0.033 0.094 0.029 0.152-0.013s0.113-0.098 0.165-0.174c0.053-0.075 0.098-0.149 0.136-0.222s0.056-0.13 0.059-0.167c-0.107-0.058-0.2-0.067-0.277-0.028s-0.14 0.101-0.186 0.186c-0.045 0.086-0.072 0.17-0.080 0.252s0.002 0.137 0.032 0.165z"></path>
<path d="M15.216 21.229c0.011-0.003 0.041-0.010 0.089-0.021 0.073-0.013 0.161-0.028 0.262-0.044 0.102-0.018 0.191-0.030 0.269-0.036 0.079-0.007 0.118-0.001 0.118 0.017-0.012 0.016-0.060 0.036-0.146 0.061s-0.188 0.051-0.305 0.076c-0.117 0.025-0.225 0.049-0.324 0.070-0.099 0.020-0.165 0.033-0.199 0.040-0.071 0.012-0.124 0.048-0.161 0.108-0.306 0.429-0.66 0.814-1.063 1.156-0.295 0.255-0.613 0.478-0.955 0.669-0.133 0.076-0.268 0.143-0.406 0.201s-0.282 0.104-0.43 0.138c-0.141 0.030-0.283 0.038-0.423 0.025-0.169-0.017-0.288-0.079-0.356-0.186-0.067-0.107-0.073-0.242-0.019-0.404 0.038-0.101 0.092-0.189 0.163-0.267 0.108-0.128 0.231-0.241 0.366-0.339 0.186-0.134 0.38-0.255 0.582-0.362 0.017-0.009 0.034-0.017 0.051-0.025 0.021-0.010 0.042-0.022 0.064-0.036 0.030-0.014 0.044-0.038 0.044-0.072 0.003-0.021 0.004-0.043 0.004-0.066 0-0.032 0-0.066 0-0.102 0-0.409 0-0.82 0-1.234 0-0.557 0-1.116 0-1.676 0-0.004 0-0.010 0-0.017 0-0.048 0.001-0.097 0.002-0.148 0.009-0.051 0.044-0.077 0.108-0.080 0.062 0.003 0.096 0.031 0.102 0.083 0.005 0.045 0.007 0.091 0.006 0.138 0 0.010 0 0.019 0 0.028 0.001 0.446 0.001 0.891 0 1.336 0 0.488 0.001 0.977 0.002 1.465 0 0.020-0.001 0.038-0.002 0.055-0.006 0.084 0.001 0.13 0.021 0.14s0.074-0.005 0.163-0.047c0.004-0.003 0.009-0.005 0.015-0.009 0.53-0.223 1.077-0.39 1.64-0.504 0.128-0.021 0.224-0.088 0.288-0.201 0.151-0.261 0.278-0.54 0.383-0.838s0.176-0.593 0.214-0.887c0.038-0.295 0.034-0.568-0.013-0.819s-0.146-0.46-0.296-0.629c-0.15-0.168-0.361-0.274-0.633-0.32s-0.615-0.007-1.027 0.112c-0.209 0.057-0.44 0.141-0.694 0.254s-0.512 0.246-0.775 0.402-0.51 0.328-0.743 0.512c-0.233 0.184-0.433 0.374-0.601 0.572-0.167 0.198-0.283 0.396-0.347 0.595-0.020 0.061-0.061 0.091-0.125 0.089-0.034 0-0.059-0.010-0.076-0.030-0.016-0.021-0.020-0.048-0.013-0.080 0.022-0.076 0.055-0.148 0.097-0.216 0.102-0.164 0.219-0.316 0.351-0.457 0.339-0.367 0.749-0.703 1.232-1.010 0.483-0.307 0.962-0.541 1.439-0.701 0.441-0.141 0.821-0.203 1.139-0.186s0.578 0.097 0.781 0.241c0.204 0.144 0.354 0.336 0.449 0.576s0.138 0.51 0.131 0.813c-0.006 0.304-0.059 0.623-0.161 0.959-0.101 0.334-0.246 0.67-0.436 1.007-0.040 0.069-0.052 0.11-0.036 0.123 0.017 0.012 0.053 0.011 0.108-0.002 0.022-0.004 0.049-0.007 0.078-0.009zM14.441 21.658c0.005-0.009 0.012-0.016 0.019-0.023 0.031-0.031 0.052-0.070 0.064-0.116-0.017-0.013-0.034-0.018-0.051-0.017-0.017 0-0.034 0.002-0.051 0.006-0.007 0.002-0.014 0.004-0.019 0.006-0.267 0.068-0.531 0.144-0.792 0.229s-0.517 0.183-0.77 0.294c-0.017 0.009-0.033 0.016-0.046 0.023-0.044 0.017-0.076 0.032-0.095 0.044-0.018 0.013-0.030 0.029-0.034 0.049-0.003 0.021-0.004 0.051-0.002 0.091 0 0.021 0 0.047 0 0.078-0.002 0.043-0.002 0.087 0 0.129 0 0.042-0.001 0.087-0.002 0.133 0 0.042-0.003 0.085-0.009 0.127-0.010 0.056-0.044 0.084-0.104 0.083-0.065-0.004-0.099-0.040-0.102-0.108-0.003-0.075-0.004-0.149-0.004-0.222 0-0.051 0-0.101 0-0.148-0.004-0.051-0.029-0.066-0.074-0.044-0.143 0.076-0.279 0.159-0.411 0.25-0.131 0.092-0.253 0.195-0.364 0.311-0.071 0.072-0.129 0.152-0.174 0.241-0.036 0.073-0.055 0.15-0.057 0.231 0.003 0.137 0.069 0.222 0.199 0.256 0.079 0.020 0.159 0.020 0.239 0.002 0.152-0.030 0.3-0.074 0.442-0.133 0.142-0.058 0.282-0.126 0.417-0.203 0.347-0.201 0.668-0.433 0.963-0.696 0.296-0.264 0.568-0.555 0.817-0.872z"></path>
<path d="M17.338 21.299c-0.027 0.080-0.080 0.174-0.159 0.279s-0.178 0.171-0.296 0.201c-0.117 0.030-0.219 0.025-0.305-0.013s-0.133-0.14-0.142-0.307c-0.099 0.191-0.193 0.313-0.282 0.366-0.088 0.052-0.179 0.072-0.275 0.059-0.109-0.017-0.182-0.058-0.22-0.125s-0.051-0.145-0.038-0.233c0.013-0.087 0.040-0.171 0.080-0.252 0.031-0.059 0.075-0.114 0.131-0.165 0.058-0.052 0.117-0.092 0.178-0.121 0.077-0.039 0.154-0.058 0.231-0.055 0.077 0.002 0.161 0.027 0.25 0.076 0.001 0.002 0.002-0.001 0.002-0.006 0-0.009 0.002-0.019 0.006-0.032 0.004-0.014 0.012-0.024 0.023-0.032 0.028-0.021 0.062-0.032 0.102-0.032 0.041 0 0.072 0.020 0.093 0.059 0.003 0.051-0.003 0.116-0.017 0.197-0.033 0.174-0.033 0.299 0 0.375s0.089 0.112 0.169 0.108c0.080-0.005 0.185-0.085 0.313-0.239 0.13-0.155 0.181-0.192 0.154-0.11zM15.909 21.707c0.043 0.033 0.094 0.029 0.152-0.013s0.113-0.098 0.165-0.174c0.053-0.075 0.098-0.149 0.136-0.222s0.056-0.13 0.059-0.167c-0.107-0.058-0.2-0.067-0.277-0.028s-0.14 0.101-0.186 0.186c-0.045 0.086-0.072 0.17-0.080 0.252s0.002 0.137 0.032 0.165z"></path>
<path d="M18.434 21.485c0.075-0.119 0.119-0.193 0.133-0.224s0.024-0.031 0.032 0.004c0.009 0.035-0.016 0.114-0.072 0.237-0.055 0.122-0.124 0.215-0.207 0.282s-0.161 0.091-0.233 0.074c-0.072-0.018-0.124-0.068-0.154-0.15-0.031-0.083-0.040-0.187-0.028-0.313 0-0.001 0.001-0.007 0.002-0.017 0.001-0.021 0.005-0.052 0.011-0.093 0.005-0.042 0.009-0.085 0.011-0.129 0.003-0.045 0.001-0.082-0.004-0.11-0.004-0.030-0.017-0.040-0.038-0.032-0.052 0.029-0.103 0.084-0.152 0.165s-0.092 0.168-0.131 0.258c-0.040 0.089-0.068 0.161-0.085 0.216-0.006 0.017-0.012 0.035-0.019 0.055-0.009 0.025-0.018 0.051-0.028 0.076-0.029 0.072-0.077 0.099-0.146 0.083-0.040-0.009-0.063-0.032-0.070-0.070-0.002-0.030-0.002-0.058-0.002-0.087 0-0.017-0.001-0.032-0.002-0.047-0.004-0.214-0.010-0.431-0.017-0.65 0.001-0.025 0.012-0.042 0.032-0.051 0.021-0.010 0.045-0.015 0.074-0.015 0.021 0 0.041 0.006 0.059 0.017s0.032 0.035 0.036 0.072c0.003 0.013 0.004 0.025 0.004 0.038 0.001 0.007 0.002 0.014 0.002 0.019 0.004 0.030 0.006 0.055 0.006 0.076 0 0.033 0.002 0.055 0.006 0.066s0.013 0.012 0.028 0c0.014-0.013 0.037-0.043 0.068-0.091 0.056-0.085 0.125-0.157 0.205-0.216 0.075-0.053 0.157-0.076 0.246-0.068 0.076 0.009 0.128 0.049 0.154 0.121 0.010 0.037 0.015 0.074 0.015 0.112 0 0.037-0.002 0.074-0.006 0.112-0.003 0.038-0.006 0.078-0.009 0.119-0.003 0.013-0.006 0.025-0.009 0.038-0.013 0.139-0.009 0.231 0.013 0.277s0.053 0.063 0.097 0.047c0.043-0.015 0.103-0.083 0.178-0.201z"></path>
<path d="M25.525 16.591c0.284 0.261 0.368 0.575 0.254 0.942-0.021 0.065-0.048 0.127-0.080 0.186-0.059 0.106-0.127 0.206-0.203 0.301-0.076 0.093-0.157 0.182-0.241 0.267-0.057 0.061-0.123 0.082-0.199 0.061-0.023-0.001-0.037-0.012-0.042-0.032-0.004-0.020 0.001-0.036 0.015-0.049 0.138-0.132 0.259-0.28 0.364-0.444 0.075-0.107 0.129-0.223 0.163-0.349 0.083-0.341-0.010-0.622-0.279-0.842-0.128-0.1-0.271-0.17-0.428-0.212-0.15-0.039-0.3-0.065-0.451-0.076-0.15-0.013-0.3-0.014-0.451-0.004-0.232 0.014-0.461 0.042-0.69 0.083-0.228 0.040-0.454 0.087-0.679 0.142-0.294 0.072-0.582 0.161-0.866 0.267-0.283 0.106-0.557 0.231-0.823 0.375-0.257 0.139-0.495 0.305-0.715 0.499-0.195 0.172-0.355 0.374-0.48 0.603-0.162 0.305-0.149 0.603 0.040 0.893 0.12 0.174 0.262 0.328 0.428 0.464 0.258 0.213 0.53 0.404 0.815 0.574 0.241 0.144 0.482 0.287 0.722 0.428 0.159 0.092 0.317 0.184 0.474 0.277 0.114 0.067 0.225 0.135 0.332 0.205 0.108 0.069 0.214 0.145 0.317 0.226 0.062 0.051 0.13 0.064 0.203 0.038 0.255-0.075 0.515-0.128 0.779-0.161 0.009 0 0.017-0.001 0.025-0.002 0.060-0.011 0.119-0.011 0.176 0 0.015 0.004 0.028 0.012 0.038 0.021 0.011 0.009 0.017 0.023 0.017 0.042s-0.006 0.035-0.019 0.044c-0.012 0.010-0.024 0.015-0.038 0.015-0.092 0.002-0.181 0.011-0.269 0.028s-0.174 0.036-0.258 0.057c-0.069 0.017-0.137 0.032-0.201 0.044-0.009 0.003-0.017 0.005-0.025 0.006-0.033 0.004-0.065 0.012-0.095 0.023-0.030 0.012-0.057 0.028-0.080 0.049 0.017 0.042 0.040 0.077 0.070 0.104 0.013 0.016 0.025 0.032 0.038 0.049 0.053 0.071 0.1 0.144 0.14 0.22 0.039 0.075 0.068 0.154 0.087 0.239 0.047 0.22-0.025 0.39-0.214 0.508-0.064 0.038-0.131 0.070-0.201 0.095-0.247 0.089-0.501 0.126-0.762 0.112-0.103-0.007-0.199-0.033-0.288-0.076-0.122-0.065-0.201-0.155-0.239-0.271-0.038-0.114-0.028-0.233 0.032-0.356 0.041-0.079 0.094-0.148 0.159-0.205 0.083-0.073 0.172-0.139 0.267-0.197 0.094-0.059 0.192-0.113 0.292-0.163 0.043-0.021 0.085-0.042 0.125-0.064 0.021-0.011 0.042-0.022 0.064-0.034 0.003-0.022-0.001-0.040-0.011-0.053s-0.021-0.023-0.034-0.032c-0.004-0.001-0.009-0.005-0.013-0.011-0.172-0.131-0.352-0.251-0.54-0.36-0.228-0.134-0.456-0.267-0.686-0.398-0.096-0.055-0.192-0.112-0.288-0.171-0.332-0.191-0.651-0.401-0.957-0.631-0.191-0.141-0.362-0.301-0.514-0.478-0.075-0.092-0.138-0.191-0.188-0.296-0.109-0.229-0.12-0.463-0.032-0.703 0.043-0.124 0.103-0.238 0.178-0.343 0.075-0.106 0.157-0.205 0.248-0.299 0.199-0.207 0.42-0.384 0.662-0.531 0.402-0.247 0.826-0.445 1.274-0.595 0.557-0.186 1.127-0.319 1.71-0.398 0.202-0.026 0.404-0.043 0.607-0.049 0.204-0.005 0.407 0.008 0.61 0.040 0.121 0.016 0.238 0.041 0.351 0.076 0.114 0.034 0.223 0.083 0.328 0.146 0.064 0.041 0.123 0.086 0.178 0.133zM22.861 21.707c-0.034-0.035-0.073-0.041-0.119-0.017-0.113 0.051-0.222 0.108-0.326 0.171-0.105 0.063-0.205 0.133-0.301 0.212-0.052 0.045-0.095 0.097-0.129 0.157-0.064 0.121-0.071 0.234-0.021 0.339 0.051 0.104 0.143 0.168 0.277 0.193 0.032 0.003 0.060 0.005 0.085 0.009 0.010 0 0.017 0 0.023 0 0.204-0.006 0.39-0.048 0.559-0.125 0.208-0.089 0.284-0.243 0.226-0.464-0.024-0.091-0.060-0.174-0.108-0.252-0.048-0.079-0.104-0.153-0.167-0.222z"></path>
<path d="M24.979 21.345c0.053-0.051 0.077-0.064 0.070-0.038s-0.037 0.072-0.089 0.14c-0.051 0.068-0.114 0.141-0.191 0.22s-0.158 0.146-0.243 0.203c-0.085 0.057-0.165 0.088-0.241 0.093-0.095 0-0.17-0.028-0.226-0.083s-0.097-0.13-0.121-0.222c-0.024-0.092-0.034-0.191-0.030-0.296 0.004-0.12 0.009-0.239 0.013-0.358 0.001-0.059 0.003-0.117 0.004-0.176 0.005-0.096 0.009-0.192 0.011-0.288 0.003-0.030-0.002-0.054-0.015-0.074-0.011-0.021-0.032-0.032-0.061-0.034-0.034-0.001-0.076-0.002-0.127-0.002-0.045 0-0.084 0-0.116 0-0.043-0.005-0.072-0.017-0.087-0.036-0.015-0.018-0.004-0.037 0.034-0.057 0.027-0.011 0.059-0.017 0.097-0.017 0.038-0.001 0.076-0.001 0.114 0 0.023 0.003 0.042 0.004 0.059 0.004 0.058 0 0.093-0.009 0.106-0.028s0.020-0.053 0.023-0.106c0.003-0.056 0.005-0.113 0.009-0.171 0.001-0.030 0.003-0.059 0.006-0.089 0-0.045 0.012-0.085 0.036-0.121 0.024-0.034 0.056-0.047 0.095-0.040 0.034 0.010 0.053 0.032 0.057 0.066 0.003 0.055 0.004 0.112 0.004 0.169 0.001 0.031 0.001 0.063 0 0.095 0 0.034 0.001 0.069 0.002 0.106-0.002 0.051 0.004 0.083 0.017 0.095s0.048 0.019 0.102 0.019c0.086 0 0.172 0 0.258 0 0.038 0 0.152-0.002 0.343-0.006 0.192-0.005 0.295 0.010 0.311 0.047 0.015 0.035-0.106 0.056-0.364 0.061-0.155 0.009-0.275 0.013-0.36 0.013-0.058-0.001-0.11-0.002-0.154-0.002-0.076 0-0.124 0.014-0.142 0.040s-0.026 0.080-0.023 0.161c-0.003 0.068-0.006 0.151-0.011 0.25-0.013 0.199-0.019 0.403-0.019 0.612 0.005 0.143 0.031 0.236 0.076 0.279 0.047 0.042 0.107 0.050 0.182 0.023s0.155-0.074 0.241-0.142c0.087-0.069 0.174-0.142 0.258-0.22 0.018-0.024 0.041-0.047 0.068-0.068 0.009-0.009 0.016-0.016 0.023-0.023z"></path>
<path d="M26.461 21.313c0.021 0.003 0.017 0.033-0.013 0.089-0.029 0.057-0.075 0.122-0.14 0.195s-0.139 0.137-0.22 0.191c-0.080 0.052-0.16 0.076-0.239 0.072-0.061-0.005-0.105-0.023-0.133-0.053s-0.048-0.064-0.059-0.099c-0.010-0.037-0.017-0.068-0.021-0.095-0.002-0.020-0.004-0.034-0.006-0.044s-0.009-0.011-0.017-0.002c-0.063 0.143-0.169 0.214-0.322 0.214-0.086 0-0.156-0.037-0.209-0.112-0.052-0.076-0.086-0.17-0.099-0.284-0.014-0.114-0.004-0.23 0.032-0.347 0.010-0.038 0.034-0.064 0.072-0.078 0.026-0.011 0.054-0.011 0.083 0.002s0.045 0.032 0.049 0.057c0 0.025-0.002 0.051-0.006 0.076-0.006 0.020-0.010 0.038-0.011 0.055-0.004 0.069-0.004 0.146 0.002 0.229 0.007 0.084 0.030 0.154 0.068 0.214 0.037 0.048 0.077 0.055 0.121 0.019 0.045-0.035 0.085-0.090 0.119-0.165 0.026-0.059 0.047-0.117 0.061-0.176 0.015-0.059 0.025-0.105 0.030-0.138 0.003-0.013 0.004-0.021 0.004-0.025 0.007-0.025 0.014-0.050 0.021-0.074 0.011-0.035 0.022-0.070 0.032-0.104 0.018-0.066 0.065-0.094 0.14-0.083 0.045 0.003 0.070 0.025 0.074 0.066 0.004 0.055 0.005 0.11 0.002 0.165-0.002 0.059-0.004 0.116-0.009 0.171-0.004 0.080-0.008 0.16-0.011 0.239-0.002 0.114 0.022 0.181 0.070 0.201 0.048 0.018 0.106 0.006 0.176-0.038s0.136-0.102 0.199-0.176c0.005-0.007 0.013-0.016 0.021-0.028 0.013-0.015 0.028-0.033 0.047-0.053 0.018-0.021 0.036-0.039 0.053-0.053s0.031-0.024 0.042-0.028z"></path>
<path d="M28.652 21.335c0.009-0.015 0.021-0.024 0.038-0.025 0.018-0.001 0.034 0.010 0.047 0.034 0.004 0.006-0.001 0.022-0.015 0.049-0.013 0.027-0.031 0.057-0.055 0.091-0.023 0.033-0.044 0.063-0.066 0.091-0.021 0.027-0.037 0.044-0.047 0.053-0.095 0.107-0.191 0.186-0.288 0.235s-0.203 0.060-0.315 0.032c-0.113-0.028-0.239-0.108-0.379-0.241-0.023-0.024-0.044-0.047-0.066-0.070-0.006-0.007-0.011-0.013-0.015-0.019-0.024-0.025-0.050-0.029-0.076-0.011-0.030 0.021-0.059 0.042-0.089 0.064-0.027 0.020-0.054 0.038-0.080 0.055-0.091 0.063-0.185 0.114-0.284 0.157-0.107 0.047-0.22 0.065-0.337 0.055-0.182-0.021-0.276-0.122-0.284-0.303-0.001-0.128 0.026-0.242 0.083-0.343s0.134-0.176 0.235-0.224c0.102-0.048 0.218-0.057 0.349-0.028 0.015 0.003 0.035 0.007 0.059 0.013 0.014 0.004 0.032 0.009 0.053 0.013-0.013-0.030-0.024-0.056-0.034-0.080-0.020-0.038-0.037-0.073-0.051-0.106-0.089-0.18-0.161-0.387-0.216-0.62s-0.083-0.471-0.083-0.715c0.001-0.246 0.042-0.473 0.123-0.684 0.082-0.212 0.216-0.385 0.404-0.521 0.119-0.080 0.241-0.124 0.368-0.131s0.247 0.021 0.36 0.083c0.113 0.063 0.204 0.155 0.275 0.279 0.090 0.169 0.146 0.349 0.167 0.538 0.039 0.305 0.033 0.59-0.019 0.853-0.051 0.264-0.141 0.514-0.271 0.749s-0.295 0.465-0.495 0.686c-0.018 0.021-0.029 0.038-0.030 0.051-0.002 0.012 0.007 0.029 0.028 0.053 0.041 0.054 0.085 0.106 0.133 0.157s0.101 0.091 0.159 0.125c0.083 0.035 0.172 0.036 0.267 0.002 0.096-0.035 0.184-0.090 0.265-0.163s0.14-0.15 0.18-0.231zM27.228 21.464c0.025-0.021 0.028-0.045 0.006-0.072-0.013-0.015-0.025-0.032-0.038-0.049-0.035-0.042-0.076-0.086-0.121-0.131s-0.090-0.079-0.138-0.102c-0.048-0.024-0.097-0.026-0.146-0.006-0.068 0.031-0.124 0.088-0.167 0.169-0.042 0.080-0.068 0.164-0.076 0.25-0.007 0.085 0.009 0.15 0.049 0.195 0.041 0.044 0.111 0.048 0.209 0.011 0.153-0.068 0.294-0.155 0.421-0.265zM27.55 21.148c0.204-0.241 0.357-0.478 0.457-0.711 0.102-0.233 0.17-0.506 0.207-0.819 0.010-0.076 0.014-0.176 0.013-0.299 0-0.124-0.011-0.253-0.032-0.387-0.021-0.136-0.060-0.258-0.116-0.368-0.055-0.111-0.132-0.192-0.231-0.241s-0.226-0.049-0.381 0c-0.169 0.101-0.296 0.233-0.379 0.398s-0.128 0.349-0.14 0.55c-0.012 0.202 0.002 0.409 0.040 0.62s0.091 0.41 0.159 0.599c0.068 0.189 0.141 0.355 0.22 0.495 0.009 0.017 0.017 0.034 0.025 0.051 0.024 0.058 0.058 0.11 0.102 0.157 0.007-0.007 0.014-0.013 0.021-0.017 0.013-0.007 0.024-0.016 0.034-0.028z"></path>
<path d="M29.392 21.455c-0.030 0.063-0.082 0.131-0.154 0.205s-0.154 0.123-0.246 0.144c-0.091 0.020-0.177-0.012-0.26-0.095-0.033-0.037-0.057-0.079-0.072-0.127-0.014-0.048-0.019-0.095-0.015-0.142 0-0.011 0-0.026 0-0.047 0-0.049 0.002-0.106 0.006-0.171s0.013-0.123 0.028-0.176c0.015-0.052 0.039-0.084 0.072-0.095 0.092-0.022 0.141 0.010 0.148 0.097 0 0.029-0.001 0.056-0.002 0.083-0.002 0.016-0.002 0.030-0.002 0.042-0.003 0.040-0.005 0.080-0.006 0.121 0 0.033-0.002 0.065-0.004 0.097-0.003 0.14 0.028 0.223 0.093 0.25s0.139-0.001 0.222-0.085c0.083-0.083 0.138-0.152 0.163-0.207 0.026-0.055 0.045-0.066 0.057-0.034 0.011 0.031 0.002 0.078-0.028 0.14zM28.88 20.653c-0.012 0.012-0.026 0.018-0.044 0.021s-0.034 0.002-0.047-0.004c-0.012-0.009-0.018-0.020-0.021-0.034s-0.004-0.031-0.004-0.051c0-0.004 0.001-0.007 0.002-0.011 0.003-0.018 0.007-0.036 0.013-0.053 0.020-0.047 0.060-0.068 0.121-0.064 0.021 0.003 0.038 0.012 0.051 0.025s0.015 0.031 0.009 0.051c-0.014 0.048-0.040 0.088-0.078 0.119z"></path>
<path d="M30.466 21.25c0.014-0.014 0.021 0.004 0.021 0.053 0.001 0.050-0.044 0.12-0.136 0.209-0.091 0.089-0.185 0.131-0.284 0.127-0.021-0.003-0.040-0.001-0.055 0.004-0.014 0.006-0.027 0.018-0.038 0.038-0.010 0.017-0.022 0.033-0.036 0.047 0 0-0.002 0.002-0.004 0.004-0.059 0.064-0.13 0.106-0.212 0.127-0.080 0.020-0.158 0.014-0.231-0.019-0.072-0.034-0.124-0.096-0.154-0.188-0.024-0.083-0.026-0.166-0.006-0.248 0.017-0.073 0.043-0.142 0.080-0.205 0.043-0.085 0.101-0.145 0.171-0.18 0.072-0.035 0.153-0.055 0.243-0.059 0.132-0.007 0.216 0.056 0.252 0.188 0.021 0.076 0.026 0.154 0.017 0.233-0.003 0.017-0.006 0.035-0.011 0.055-0.004 0.013-0.008 0.025-0.011 0.038-0.004 0.042 0.014 0.061 0.055 0.057 0.113-0.020 0.225-0.113 0.337-0.282zM29.677 21.745c0.068-0.032 0.115-0.087 0.142-0.163-0.113-0.072-0.189-0.176-0.229-0.313-0.035 0.064-0.057 0.139-0.066 0.224-0.007 0.085 0.001 0.155 0.025 0.212 0.025 0.055 0.068 0.069 0.127 0.040zM29.872 21.432c0.018-0.026 0.029-0.060 0.032-0.099 0.004-0.041 0.003-0.080-0.004-0.119-0.007-0.039-0.018-0.070-0.032-0.093-0.013-0.022-0.026-0.030-0.040-0.021-0.027 0.024-0.042 0.058-0.044 0.102s0.003 0.088 0.019 0.131c0.017 0.042 0.040 0.076 0.070 0.099z"></path>
<path d="M16.14 12.48c0.015 0.002 0.031 0.004 0.047 0.006s0.029 0.010 0.040 0.021c0.003 0.004 0.004 0.010 0.004 0.017 0.001 0.006 0.002 0.011 0.002 0.015 0 0.002-0.002 0.004-0.006 0.009-0.003 0.003-0.006 0.005-0.011 0.006-0.006 0.003-0.012 0.005-0.017 0.006-0.092-0.001-0.179 0.012-0.26 0.038-0.080 0.027-0.159 0.060-0.235 0.099-0.105 0.052-0.204 0.113-0.299 0.182-0.093 0.070-0.183 0.145-0.269 0.222-0.162 0.147-0.317 0.303-0.464 0.468-0.034 0.037-0.068 0.073-0.102 0.11-0.004 0.007-0.010 0.013-0.017 0.017-0.017 0.020-0.035 0.036-0.055 0.049-0.043 0.034-0.090 0.036-0.14 0.006-0.018-0.016-0.028-0.033-0.028-0.053 0-0.018 0.004-0.036 0.013-0.053 0.080-0.258 0.149-0.518 0.205-0.777 0.079-0.348 0.155-0.697 0.226-1.048 0.073-0.35 0.138-0.701 0.193-1.054 0.032-0.213 0.063-0.426 0.091-0.639 0.011-0.097 0.023-0.196 0.036-0.296 0.001-0.007 0.002-0.015 0.002-0.023 0.003-0.018 0.005-0.038 0.009-0.059 0.010-0.030 0.031-0.043 0.064-0.042 0.018 0.003 0.034 0.010 0.049 0.019s0.020 0.019 0.019 0.032c0.003 0.052 0.002 0.105-0.002 0.157-0.003 0.016-0.005 0.031-0.006 0.044-0.036 0.277-0.073 0.554-0.112 0.832-0.038 0.271-0.085 0.543-0.14 0.815-0.054 0.273-0.11 0.544-0.169 0.815-0.050 0.222-0.101 0.443-0.152 0.667-0.012 0.051-0.024 0.102-0.038 0.152-0.009 0.030-0.016 0.058-0.023 0.087-0.007 0.024-0.014 0.049-0.021 0.076-0.002 0.013-0.004 0.025-0.009 0.038 0.004 0 0.007 0.001 0.011 0.004 0.004 0 0.009 0.001 0.013 0.004 0.007-0.009 0.015-0.017 0.023-0.025 0.024-0.025 0.047-0.050 0.070-0.072 0.164-0.175 0.337-0.335 0.521-0.48 0.094-0.075 0.191-0.142 0.29-0.201 0.1-0.060 0.207-0.109 0.322-0.146 0.053-0.018 0.107-0.032 0.161-0.040s0.108-0.010 0.165-0.004z"></path>
<path d="M18.576 14.105c0.007 0 0.026 0 0.059 0 0.045 0 0.101 0.001 0.167 0.002s0.123 0.004 0.171 0.009c0.049 0.005 0.072 0.015 0.070 0.028-0.007 0.009-0.040 0.015-0.097 0.021-0.057 0.005-0.123 0.009-0.199 0.009-0.075 0.001-0.145 0.003-0.209 0.004s-0.108 0.002-0.129 0.002c-0.045-0.003-0.083 0.012-0.112 0.044-0.246 0.231-0.515 0.429-0.809 0.593-0.216 0.123-0.441 0.223-0.675 0.301-0.093 0.031-0.186 0.056-0.279 0.074s-0.188 0.030-0.286 0.034c-0.092 0.001-0.181-0.011-0.269-0.036-0.102-0.031-0.167-0.085-0.197-0.161-0.029-0.075-0.016-0.16 0.038-0.254 0.035-0.058 0.079-0.107 0.133-0.148 0.085-0.065 0.176-0.12 0.273-0.165 0.131-0.061 0.266-0.112 0.404-0.152 0.013-0.004 0.024-0.007 0.036-0.009 0.014-0.006 0.029-0.012 0.044-0.017 0.020-0.006 0.032-0.019 0.036-0.040 0.004-0.014 0.007-0.028 0.011-0.040 0.003-0.020 0.006-0.041 0.011-0.064 0.051-0.255 0.102-0.512 0.152-0.77 0.069-0.347 0.138-0.695 0.207-1.046 0-0.003 0.001-0.006 0.002-0.011 0.005-0.031 0.012-0.061 0.019-0.091 0.013-0.032 0.039-0.044 0.080-0.036 0.038 0.007 0.055 0.028 0.051 0.061-0.002 0.029-0.006 0.057-0.013 0.087-0.002 0.007-0.003 0.014-0.004 0.019-0.052 0.278-0.107 0.556-0.163 0.832-0.061 0.305-0.12 0.611-0.178 0.917-0.003 0.011-0.006 0.022-0.011 0.034-0.014 0.049-0.016 0.078-0.004 0.087 0.013 0.010 0.049 0.007 0.108-0.009 0.003 0 0.007-0.002 0.013-0.004 0.357-0.072 0.719-0.109 1.086-0.11 0.083 0.003 0.15-0.028 0.201-0.091 0.127-0.144 0.241-0.303 0.343-0.476s0.184-0.349 0.243-0.527c0.060-0.179 0.092-0.35 0.093-0.512s-0.035-0.305-0.108-0.428c-0.072-0.124-0.191-0.216-0.356-0.277s-0.383-0.081-0.654-0.057c-0.137 0.010-0.292 0.035-0.466 0.074-0.172 0.038-0.35 0.090-0.533 0.155-0.184 0.064-0.359 0.139-0.527 0.226-0.167 0.086-0.314 0.181-0.442 0.286s-0.226 0.212-0.292 0.326c-0.020 0.036-0.050 0.049-0.089 0.040-0.021-0.004-0.036-0.013-0.042-0.028-0.007-0.015-0.006-0.032 0.002-0.051 0.024-0.043 0.053-0.085 0.087-0.125 0.083-0.089 0.175-0.168 0.275-0.239 0.258-0.189 0.556-0.349 0.893-0.48 0.339-0.132 0.667-0.219 0.984-0.258 0.292-0.034 0.536-0.025 0.732 0.025s0.349 0.131 0.459 0.246c0.11 0.113 0.18 0.251 0.209 0.413 0.030 0.161 0.023 0.336-0.019 0.525-0.041 0.188-0.114 0.38-0.218 0.578s-0.236 0.387-0.396 0.574c-0.033 0.039-0.045 0.064-0.038 0.072 0.009 0.009 0.031 0.013 0.068 0.015 0.014 0 0.031 0.001 0.051 0.002zM18.038 14.276c0.005-0.003 0.011-0.007 0.015-0.013 0.025-0.014 0.043-0.036 0.055-0.064-0.009-0.010-0.018-0.016-0.030-0.017-0.010-0.002-0.021-0.002-0.034-0.002-0.004 0.001-0.009 0.002-0.013 0.002-0.175 0.010-0.349 0.024-0.523 0.044-0.172 0.021-0.344 0.051-0.517 0.089-0.012 0.004-0.022 0.007-0.032 0.011-0.029 0.005-0.050 0.011-0.064 0.015-0.014 0.005-0.023 0.015-0.028 0.028s-0.009 0.032-0.013 0.057c-0.003 0.013-0.006 0.028-0.009 0.046-0.007 0.028-0.013 0.056-0.017 0.083-0.004 0.025-0.011 0.053-0.019 0.083-0.004 0.026-0.012 0.052-0.021 0.076-0.013 0.035-0.038 0.049-0.074 0.040-0.040-0.010-0.056-0.038-0.049-0.083 0.005-0.045 0.013-0.091 0.021-0.136 0.007-0.033 0.013-0.065 0.019-0.095s-0.007-0.043-0.038-0.036c-0.099 0.030-0.195 0.065-0.288 0.106-0.093 0.042-0.182 0.092-0.267 0.15-0.052 0.037-0.098 0.079-0.138 0.129-0.031 0.042-0.052 0.087-0.064 0.136-0.016 0.087 0.015 0.149 0.093 0.184 0.048 0.022 0.098 0.033 0.15 0.032 0.097 0 0.194-0.010 0.29-0.028s0.191-0.044 0.286-0.078c0.242-0.082 0.472-0.187 0.688-0.315 0.217-0.129 0.422-0.277 0.616-0.444z"></path>
</symbol>
<symbol id="icon-search" viewBox="0 0 24 24">
<path d="M16.041 15.856c-0.034 0.026-0.067 0.055-0.099 0.087s-0.060 0.064-0.087 0.099c-1.258 1.213-2.969 1.958-4.855 1.958-1.933 0-3.682-0.782-4.95-2.050s-2.050-3.017-2.050-4.95 0.782-3.682 2.050-4.95 3.017-2.050 4.95-2.050 3.682 0.782 4.95 2.050 2.050 3.017 2.050 4.95c0 1.886-0.745 3.597-1.959 4.856zM21.707 20.293l-3.675-3.675c1.231-1.54 1.968-3.493 1.968-5.618 0-2.485-1.008-4.736-2.636-6.364s-3.879-2.636-6.364-2.636-4.736 1.008-6.364 2.636-2.636 3.879-2.636 6.364 1.008 4.736 2.636 6.364 3.879 2.636 6.364 2.636c2.125 0 4.078-0.737 5.618-1.968l3.675 3.675c0.391 0.391 1.024 0.391 1.414 0s0.391-1.024 0-1.414z"></path>
</symbol>
<symbol id="icon-facebook" viewBox="0 0 32 32">
<path d="M28.5 16c0-6.904-5.596-12.5-12.5-12.5s-12.5 5.596-12.5 12.5c0 6.903 5.596 12.499 12.499 12.5h0l0.001 0 0.001-0c6.9-0.009 12.491-5.6 12.499-12.499v-0.001zM16.5 27.488v-8.988h3.5c0.276 0 0.5-0.224 0.5-0.5s-0.224-0.5-0.5-0.5v0h-3.5v-3.5c0.002-1.38 1.12-2.498 2.5-2.5h2c0.276 0 0.5-0.224 0.5-0.5s-0.224-0.5-0.5-0.5v0h-2c-1.932 0.002-3.498 1.568-3.5 3.5v3.5h-3.5c-0.276 0-0.5 0.224-0.5 0.5s0.224 0.5 0.5 0.5v0h3.5v8.988c-6.132-0.275-11-5.314-11-11.489 0-6.351 5.149-11.5 11.5-11.5s11.5 5.149 11.5 11.5c0 6.175-4.868 11.214-10.975 11.488l-0.025 0.001z"></path>
</symbol>
<symbol id="icon-instagram" viewBox="0 0 32 32">
<path d="M16 10.5c-3.038 0-5.5 2.462-5.5 5.5s2.462 5.5 5.5 5.5c3.038 0 5.5-2.462 5.5-5.5v0c-0.004-3.036-2.464-5.496-5.5-5.5h-0zM16 20.5c-2.485 0-4.5-2.015-4.5-4.5s2.015-4.5 4.5-4.5c2.485 0 4.5 2.015 4.5 4.5v0c-0.003 2.484-2.016 4.497-4.5 4.5h-0zM21.5 4h-11c-3.588 0.004-6.496 2.912-6.5 6.5v11c0.004 3.588 2.912 6.496 6.5 6.5h11c3.588-0.004 6.496-2.912 6.5-6.5v-11c-0.004-3.588-2.912-6.496-6.5-6.5h-0zM27 21.5c-0.004 3.036-2.464 5.496-5.5 5.5h-11c-3.036-0.004-5.496-2.464-5.5-5.5v-11c0.004-3.036 2.464-5.496 5.5-5.5h11c3.036 0.004 5.496 2.464 5.5 5.5v0zM23.5 9.5c0 0.552-0.448 1-1 1s-1-0.448-1-1c0-0.552 0.448-1 1-1v0c0.552 0.001 0.999 0.448 1 1v0z"></path>
</symbol>
<symbol id="icon-menu" viewBox="0 0 24 24">
<path d="M3 13h18c0.552 0 1-0.448 1-1s-0.448-1-1-1h-18c-0.552 0-1 0.448-1 1s0.448 1 1 1zM3 7h18c0.552 0 1-0.448 1-1s-0.448-1-1-1h-18c-0.552 0-1 0.448-1 1s0.448 1 1 1zM3 19h18c0.552 0 1-0.448 1-1s-0.448-1-1-1h-18c-0.552 0-1 0.448-1 1s0.448 1 1 1z"></path>
</symbol>
<symbol id="icon-message" viewBox="0 0 32 32">
<path d="M16.032 12.296c1.898 0 3.429-1.531 3.429-3.429s-1.519-3.429-3.429-3.429c-1.898 0-3.429 1.531-3.429 3.429 0.012 1.911 1.543 3.429 3.429 3.429zM8.071 22.227h-6.16c-1.996 0-2.106-3.049 0.037-3.049h5.339l3.062-4.507c0.906-1.237 1.935-1.825 3.392-1.825h4.568c1.457 0 2.486 0.539 3.392 1.825l3.074 4.507h5.376c2.155 0 2.021 3.049 0.073 3.049h-6.16c-0.49 0-1.078-0.172-1.421-0.698l-2.351-3.355-0.012 8.401h-8.425l-0.012-8.401-2.351 3.355c-0.343 0.514-0.931 0.698-1.421 0.698z"></path>
<path d="M6.968 15.637l-1.88-1.887 1.88-1.88v3.767zM1.099 15.994l1.88-1.88 0.081 0.074c0.445 0.425 1.152 0.425 1.577 0l0.081-0.081 1.893 1.88h-5.512v0.007zM0.762 11.87l1.873 1.88-1.88 1.887 0.007-3.767zM6.611 11.513l-2.311 2.311c-0.236 0.236-0.654 0.229-0.896-0.007l-2.304-2.304h5.512zM0.25 16.499h7.25v-5.498h-7.25v5.498z"></path>
<path d="M30.844 13.077v3.665h-6.344v-6.344h5.192l-0.909 0.906h-3.377v4.531h4.531v-1.856l0.906-0.904zM31.75 10.899l-0.64-0.642-3.434 3.423-1.061-1.061-0.641 0.641 1.701 1.701 4.075-4.062z"></path>
</symbol>
<symbol id="icon-arrow" viewBox="0 0 24 24">
<path d="M23 12c0-3.037-1.232-5.789-3.222-7.778s-4.741-3.222-7.778-3.222-5.789 1.232-7.778 3.222-3.222 4.741-3.222 7.778 1.232 5.789 3.222 7.778 4.741 3.222 7.778 3.222 5.789-1.232 7.778-3.222 3.222-4.741 3.222-7.778zM21 12c0 2.486-1.006 4.734-2.636 6.364s-3.878 2.636-6.364 2.636-4.734-1.006-6.364-2.636-2.636-3.878-2.636-6.364 1.006-4.734 2.636-6.364 3.878-2.636 6.364-2.636 4.734 1.006 6.364 2.636 2.636 3.878 2.636 6.364zM8 13h5.586l-2.293 2.293c-0.391 0.391-0.391 1.024 0 1.414s1.024 0.391 1.414 0l4-4c0.092-0.092 0.166-0.202 0.217-0.324 0.101-0.245 0.101-0.521 0-0.766-0.049-0.118-0.121-0.228-0.217-0.324l-4-4c-0.391-0.391-1.024-0.391-1.414 0s-0.391 1.024 0 1.414l2.293 2.293h-5.586c-0.552 0-1 0.448-1 1s0.448 1 1 1z"></path>
</symbol>
<symbol id="icon-bullets" viewBox="0 0 32 32">
<path d="M8.562 15.998c0 2.36-1.915 4.267-4.281 4.267s-4.281-1.908-4.281-4.267c0-2.353 1.917-4.264 4.281-4.264 2.365 0 4.281 1.911 4.281 4.264z"></path>
<path d="M20.28 15.998c0 2.36-1.915 4.267-4.28 4.267s-4.281-1.907-4.281-4.267c0-2.353 1.917-4.264 4.281-4.264 2.365 0 4.28 1.911 4.28 4.264z"></path>
<path d="M32 15.998c0 2.36-1.915 4.267-4.281 4.267s-4.28-1.907-4.28-4.267c0-2.353 1.917-4.264 4.28-4.264 2.365 0 4.281 1.911 4.281 4.264z"></path>
</symbol>
</defs>
</svg>
